<?xml version="1.0" encoding="utf-8"?>
<svg version="1.1" baseProfile="full"  width="392" height="392" viewBox="0 0 392 392"
		 xmlns="http://www.w3.org/2000/svg" xmlns:xlink="http://www.w3.org/1999/xlink" xmlns:ev="http://www.w3.org/2001/xml-events">
<desc></desc>
<rect width="392" height="392" fill="#ffffff" cx="0" cy="0" />
<defs>
<rect id="p" width="8" height="8" />
</defs>
<g fill="#000000">
<use x="32" y="32" xlink:href="#p" />
<use x="32" y="40" xlink:href="#p" />
<use x="32" y="48" xlink:href="#p" />
<use x="32" y="56" xlink:href="#p" />
<use x="32" y="64" xlink:href="#p" />
<use x="32" y="72" xlink:href="#p" />
<use x="32" y="80" xlink:href="#p" />
<use x="32" y="128" xlink:href="#p" />
<use x="32" y="176" xlink:href="#p" />
<use x="32" y="216" xlink:href="#p" />
<use x="32" y="224" xlink:href="#p" />
<use x="32" y="240" xlink:href="#p" />
<use x="32" y="256" xlink:href="#p" />
<use x="32" y="272" xlink:href="#p" />
<use x="32" y="280" xlink:href="#p" />
<use x="32" y="304" xlink:href="#p" />
<use x="32" y="312" xlink:href="#p" />
<use x="32" y="320" xlink:href="#p" />
<use x="32" y="328" xlink:href="#p" />
<use x="32" y="336" xlink:href="#p" />
<use x="32" y="344" xlink:href="#p" />
<use x="32" y="352" xlink:href="#p" />
<use x="40" y="32" xlink:href="#p" />
<use x="40" y="80" xlink:href="#p" />
<use x="40" y="96" xlink:href="#p" />
<use x="40" y="104" xlink:href="#p" />
<use x="40" y="112" xlink:href="#p" />
<use x="40" y="120" xlink:href="#p" />
<use x="40" y="144" xlink:href="#p" />
<use x="40" y="160" xlink:href="#p" />
<use x="40" y="184" xlink:href="#p" />
<use x="40" y="200" xlink:href="#p" />
<use x="40" y="240" xlink:href="#p" />
<use x="40" y="248" xlink:href="#p" />
<use x="40" y="256" xlink:href="#p" />
<use x="40" y="264" xlink:href="#p" />
<use x="40" y="272" xlink:href="#p" />
<use x="40" y="280" xlink:href="#p" />
<use x="40" y="304" xlink:href="#p" />
<use x="40" y="352" xlink:href="#p" />
<use x="48" y="32" xlink:href="#p" />
<use x="48" y="48" xlink:href="#p" />
<use x="48" y="56" xlink:href="#p" />
<use x="48" y="64" xlink:href="#p" />
<use x="48" y="80" xlink:href="#p" />
<use x="48" y="144" xlink:href="#p" />
<use x="48" y="152" xlink:href="#p" />
<use x="48" y="160" xlink:href="#p" />
<use x="48" y="168" xlink:href="#p" />
<use x="48" y="176" xlink:href="#p" />
<use x="48" y="192" xlink:href="#p" />
<use x="48" y="200" xlink:href="#p" />
<use x="48" y="224" xlink:href="#p" />
<use x="48" y="232" xlink:href="#p" />
<use x="48" y="248" xlink:href="#p" />
<use x="48" y="256" xlink:href="#p" />
<use x="48" y="264" xlink:href="#p" />
<use x="48" y="280" xlink:href="#p" />
<use x="48" y="304" xlink:href="#p" />
<use x="48" y="320" xlink:href="#p" />
<use x="48" y="328" xlink:href="#p" />
<use x="48" y="336" xlink:href="#p" />
<use x="48" y="352" xlink:href="#p" />
<use x="56" y="32" xlink:href="#p" />
<use x="56" y="48" xlink:href="#p" />
<use x="56" y="56" xlink:href="#p" />
<use x="56" y="64" xlink:href="#p" />
<use x="56" y="80" xlink:href="#p" />
<use x="56" y="104" xlink:href="#p" />
<use x="56" y="136" xlink:href="#p" />
<use x="56" y="160" xlink:href="#p" />
<use x="56" y="168" xlink:href="#p" />
<use x="56" y="192" xlink:href="#p" />
<use x="56" y="224" xlink:href="#p" />
<use x="56" y="280" xlink:href="#p" />
<use x="56" y="288" xlink:href="#p" />
<use x="56" y="304" xlink:href="#p" />
<use x="56" y="320" xlink:href="#p" />
<use x="56" y="328" xlink:href="#p" />
<use x="56" y="336" xlink:href="#p" />
<use x="56" y="352" xlink:href="#p" />
<use x="64" y="32" xlink:href="#p" />
<use x="64" y="48" xlink:href="#p" />
<use x="64" y="56" xlink:href="#p" />
<use x="64" y="64" xlink:href="#p" />
<use x="64" y="80" xlink:href="#p" />
<use x="64" y="96" xlink:href="#p" />
<use x="64" y="128" xlink:href="#p" />
<use x="64" y="144" xlink:href="#p" />
<use x="64" y="160" xlink:href="#p" />
<use x="64" y="168" xlink:href="#p" />
<use x="64" y="176" xlink:href="#p" />
<use x="64" y="184" xlink:href="#p" />
<use x="64" y="200" xlink:href="#p" />
<use x="64" y="248" xlink:href="#p" />
<use x="64" y="264" xlink:href="#p" />
<use x="64" y="272" xlink:href="#p" />
<use x="64" y="280" xlink:href="#p" />
<use x="64" y="288" xlink:href="#p" />
<use x="64" y="304" xlink:href="#p" />
<use x="64" y="320" xlink:href="#p" />
<use x="64" y="328" xlink:href="#p" />
<use x="64" y="336" xlink:href="#p" />
<use x="64" y="352" xlink:href="#p" />
<use x="72" y="32" xlink:href="#p" />
<use x="72" y="80" xlink:href="#p" />
<use x="72" y="104" xlink:href="#p" />
<use x="72" y="112" xlink:href="#p" />
<use x="72" y="144" xlink:href="#p" />
<use x="72" y="168" xlink:href="#p" />
<use x="72" y="176" xlink:href="#p" />
<use x="72" y="200" xlink:href="#p" />
<use x="72" y="208" xlink:href="#p" />
<use x="72" y="232" xlink:href="#p" />
<use x="72" y="248" xlink:href="#p" />
<use x="72" y="256" xlink:href="#p" />
<use x="72" y="272" xlink:href="#p" />
<use x="72" y="280" xlink:href="#p" />
<use x="72" y="304" xlink:href="#p" />
<use x="72" y="352" xlink:href="#p" />
<use x="80" y="32" xlink:href="#p" />
<use x="80" y="40" xlink:href="#p" />
<use x="80" y="48" xlink:href="#p" />
<use x="80" y="56" xlink:href="#p" />
<use x="80" y="64" xlink:href="#p" />
<use x="80" y="72" xlink:href="#p" />
<use x="80" y="80" xlink:href="#p" />
<use x="80" y="96" xlink:href="#p" />
<use x="80" y="112" xlink:href="#p" />
<use x="80" y="128" xlink:href="#p" />
<use x="80" y="144" xlink:href="#p" />
<use x="80" y="160" xlink:href="#p" />
<use x="80" y="176" xlink:href="#p" />
<use x="80" y="192" xlink:href="#p" />
<use x="80" y="208" xlink:href="#p" />
<use x="80" y="224" xlink:href="#p" />
<use x="80" y="240" xlink:href="#p" />
<use x="80" y="256" xlink:href="#p" />
<use x="80" y="272" xlink:href="#p" />
<use x="80" y="288" xlink:href="#p" />
<use x="80" y="304" xlink:href="#p" />
<use x="80" y="312" xlink:href="#p" />
<use x="80" y="320" xlink:href="#p" />
<use x="80" y="328" xlink:href="#p" />
<use x="80" y="336" xlink:href="#p" />
<use x="80" y="344" xlink:href="#p" />
<use x="80" y="352" xlink:href="#p" />
<use x="88" y="112" xlink:href="#p" />
<use x="88" y="120" xlink:href="#p" />
<use x="88" y="144" xlink:href="#p" />
<use x="88" y="152" xlink:href="#p" />
<use x="88" y="168" xlink:href="#p" />
<use x="88" y="184" xlink:href="#p" />
<use x="88" y="200" xlink:href="#p" />
<use x="88" y="216" xlink:href="#p" />
<use x="88" y="224" xlink:href="#p" />
<use x="88" y="240" xlink:href="#p" />
<use x="88" y="256" xlink:href="#p" />
<use x="88" y="272" xlink:href="#p" />
<use x="88" y="280" xlink:href="#p" />
<use x="88" y="288" xlink:href="#p" />
<use x="96" y="48" xlink:href="#p" />
<use x="96" y="64" xlink:href="#p" />
<use x="96" y="72" xlink:href="#p" />
<use x="96" y="80" xlink:href="#p" />
<use x="96" y="96" xlink:href="#p" />
<use x="96" y="128" xlink:href="#p" />
<use x="96" y="144" xlink:href="#p" />
<use x="96" y="168" xlink:href="#p" />
<use x="96" y="192" xlink:href="#p" />
<use x="96" y="216" xlink:href="#p" />
<use x="96" y="224" xlink:href="#p" />
<use x="96" y="232" xlink:href="#p" />
<use x="96" y="272" xlink:href="#p" />
<use x="96" y="280" xlink:href="#p" />
<use x="96" y="288" xlink:href="#p" />
<use x="96" y="296" xlink:href="#p" />
<use x="96" y="320" xlink:href="#p" />
<use x="96" y="344" xlink:href="#p" />
<use x="104" y="56" xlink:href="#p" />
<use x="104" y="72" xlink:href="#p" />
<use x="104" y="88" xlink:href="#p" />
<use x="104" y="104" xlink:href="#p" />
<use x="104" y="120" xlink:href="#p" />
<use x="104" y="136" xlink:href="#p" />
<use x="104" y="152" xlink:href="#p" />
<use x="104" y="160" xlink:href="#p" />
<use x="104" y="168" xlink:href="#p" />
<use x="104" y="176" xlink:href="#p" />
<use x="104" y="208" xlink:href="#p" />
<use x="104" y="216" xlink:href="#p" />
<use x="104" y="224" xlink:href="#p" />
<use x="104" y="248" xlink:href="#p" />
<use x="104" y="272" xlink:href="#p" />
<use x="104" y="296" xlink:href="#p" />
<use x="104" y="320" xlink:href="#p" />
<use x="104" y="328" xlink:href="#p" />
<use x="104" y="344" xlink:href="#p" />
<use x="104" y="352" xlink:href="#p" />
<use x="112" y="32" xlink:href="#p" />
<use x="112" y="64" xlink:href="#p" />
<use x="112" y="80" xlink:href="#p" />
<use x="112" y="128" xlink:href="#p" />
<use x="112" y="184" xlink:href="#p" />
<use x="112" y="200" xlink:href="#p" />
<use x="112" y="224" xlink:href="#p" />
<use x="112" y="232" xlink:href="#p" />
<use x="112" y="240" xlink:href="#p" />
<use x="112" y="256" xlink:href="#p" />
<use x="112" y="264" xlink:href="#p" />
<use x="112" y="272" xlink:href="#p" />
<use x="112" y="304" xlink:href="#p" />
<use x="112" y="344" xlink:href="#p" />
<use x="120" y="32" xlink:href="#p" />
<use x="120" y="48" xlink:href="#p" />
<use x="120" y="64" xlink:href="#p" />
<use x="120" y="88" xlink:href="#p" />
<use x="120" y="96" xlink:href="#p" />
<use x="120" y="136" xlink:href="#p" />
<use x="120" y="160" xlink:href="#p" />
<use x="120" y="184" xlink:href="#p" />
<use x="120" y="192" xlink:href="#p" />
<use x="120" y="200" xlink:href="#p" />
<use x="120" y="208" xlink:href="#p" />
<use x="120" y="224" xlink:href="#p" />
<use x="120" y="232" xlink:href="#p" />
<use x="120" y="240" xlink:href="#p" />
<use x="120" y="264" xlink:href="#p" />
<use x="120" y="272" xlink:href="#p" />
<use x="120" y="328" xlink:href="#p" />
<use x="120" y="344" xlink:href="#p" />
<use x="128" y="48" xlink:href="#p" />
<use x="128" y="56" xlink:href="#p" />
<use x="128" y="64" xlink:href="#p" />
<use x="128" y="80" xlink:href="#p" />
<use x="128" y="96" xlink:href="#p" />
<use x="128" y="112" xlink:href="#p" />
<use x="128" y="120" xlink:href="#p" />
<use x="128" y="136" xlink:href="#p" />
<use x="128" y="144" xlink:href="#p" />
<use x="128" y="152" xlink:href="#p" />
<use x="128" y="160" xlink:href="#p" />
<use x="128" y="184" xlink:href="#p" />
<use x="128" y="192" xlink:href="#p" />
<use x="128" y="200" xlink:href="#p" />
<use x="128" y="208" xlink:href="#p" />
<use x="128" y="216" xlink:href="#p" />
<use x="128" y="232" xlink:href="#p" />
<use x="128" y="248" xlink:href="#p" />
<use x="128" y="256" xlink:href="#p" />
<use x="128" y="264" xlink:href="#p" />
<use x="128" y="280" xlink:href="#p" />
<use x="128" y="296" xlink:href="#p" />
<use x="128" y="312" xlink:href="#p" />
<use x="128" y="328" xlink:href="#p" />
<use x="128" y="336" xlink:href="#p" />
<use x="136" y="48" xlink:href="#p" />
<use x="136" y="56" xlink:href="#p" />
<use x="136" y="72" xlink:href="#p" />
<use x="136" y="88" xlink:href="#p" />
<use x="136" y="104" xlink:href="#p" />
<use x="136" y="112" xlink:href="#p" />
<use x="136" y="136" xlink:href="#p" />
<use x="136" y="144" xlink:href="#p" />
<use x="136" y="152" xlink:href="#p" />
<use x="136" y="160" xlink:href="#p" />
<use x="136" y="192" xlink:href="#p" />
<use x="136" y="216" xlink:href="#p" />
<use x="136" y="224" xlink:href="#p" />
<use x="136" y="232" xlink:href="#p" />
<use x="136" y="240" xlink:href="#p" />
<use x="136" y="248" xlink:href="#p" />
<use x="136" y="256" xlink:href="#p" />
<use x="136" y="288" xlink:href="#p" />
<use x="136" y="304" xlink:href="#p" />
<use x="136" y="320" xlink:href="#p" />
<use x="136" y="328" xlink:href="#p" />
<use x="136" y="336" xlink:href="#p" />
<use x="136" y="344" xlink:href="#p" />
<use x="144" y="32" xlink:href="#p" />
<use x="144" y="48" xlink:href="#p" />
<use x="144" y="56" xlink:href="#p" />
<use x="144" y="64" xlink:href="#p" />
<use x="144" y="72" xlink:href="#p" />
<use x="144" y="80" xlink:href="#p" />
<use x="144" y="88" xlink:href="#p" />
<use x="144" y="112" xlink:href="#p" />
<use x="144" y="120" xlink:href="#p" />
<use x="144" y="136" xlink:href="#p" />
<use x="144" y="144" xlink:href="#p" />
<use x="144" y="152" xlink:href="#p" />
<use x="144" y="168" xlink:href="#p" />
<use x="144" y="176" xlink:href="#p" />
<use x="144" y="216" xlink:href="#p" />
<use x="144" y="264" xlink:href="#p" />
<use x="144" y="280" xlink:href="#p" />
<use x="144" y="304" xlink:href="#p" />
<use x="152" y="32" xlink:href="#p" />
<use x="152" y="88" xlink:href="#p" />
<use x="152" y="96" xlink:href="#p" />
<use x="152" y="120" xlink:href="#p" />
<use x="152" y="128" xlink:href="#p" />
<use x="152" y="144" xlink:href="#p" />
<use x="152" y="168" xlink:href="#p" />
<use x="152" y="192" xlink:href="#p" />
<use x="152" y="200" xlink:href="#p" />
<use x="152" y="216" xlink:href="#p" />
<use x="152" y="232" xlink:href="#p" />
<use x="152" y="256" xlink:href="#p" />
<use x="152" y="272" xlink:href="#p" />
<use x="152" y="296" xlink:href="#p" />
<use x="152" y="320" xlink:href="#p" />
<use x="152" y="328" xlink:href="#p" />
<use x="152" y="336" xlink:href="#p" />
<use x="160" y="48" xlink:href="#p" />
<use x="160" y="64" xlink:href="#p" />
<use x="160" y="72" xlink:href="#p" />
<use x="160" y="80" xlink:href="#p" />
<use x="160" y="112" xlink:href="#p" />
<use x="160" y="120" xlink:href="#p" />
<use x="160" y="136" xlink:href="#p" />
<use x="160" y="144" xlink:href="#p" />
<use x="160" y="176" xlink:href="#p" />
<use x="160" y="200" xlink:href="#p" />
<use x="160" y="224" xlink:href="#p" />
<use x="160" y="232" xlink:href="#p" />
<use x="160" y="272" xlink:href="#p" />
<use x="160" y="280" xlink:href="#p" />
<use x="160" y="288" xlink:href="#p" />
<use x="160" y="312" xlink:href="#p" />
<use x="160" y="320" xlink:href="#p" />
<use x="160" y="328" xlink:href="#p" />
<use x="160" y="352" xlink:href="#p" />
<use x="168" y="48" xlink:href="#p" />
<use x="168" y="72" xlink:href="#p" />
<use x="168" y="88" xlink:href="#p" />
<use x="168" y="104" xlink:href="#p" />
<use x="168" y="112" xlink:href="#p" />
<use x="168" y="160" xlink:href="#p" />
<use x="168" y="176" xlink:href="#p" />
<use x="168" y="184" xlink:href="#p" />
<use x="168" y="200" xlink:href="#p" />
<use x="168" y="224" xlink:href="#p" />
<use x="168" y="232" xlink:href="#p" />
<use x="168" y="240" xlink:href="#p" />
<use x="168" y="248" xlink:href="#p" />
<use x="168" y="264" xlink:href="#p" />
<use x="168" y="272" xlink:href="#p" />
<use x="168" y="280" xlink:href="#p" />
<use x="168" y="288" xlink:href="#p" />
<use x="168" y="296" xlink:href="#p" />
<use x="168" y="336" xlink:href="#p" />
<use x="176" y="32" xlink:href="#p" />
<use x="176" y="40" xlink:href="#p" />
<use x="176" y="48" xlink:href="#p" />
<use x="176" y="56" xlink:href="#p" />
<use x="176" y="72" xlink:href="#p" />
<use x="176" y="80" xlink:href="#p" />
<use x="176" y="104" xlink:href="#p" />
<use x="176" y="136" xlink:href="#p" />
<use x="176" y="144" xlink:href="#p" />
<use x="176" y="160" xlink:href="#p" />
<use x="176" y="176" xlink:href="#p" />
<use x="176" y="184" xlink:href="#p" />
<use x="176" y="200" xlink:href="#p" />
<use x="176" y="208" xlink:href="#p" />
<use x="176" y="264" xlink:href="#p" />
<use x="176" y="296" xlink:href="#p" />
<use x="176" y="304" xlink:href="#p" />
<use x="176" y="352" xlink:href="#p" />
<use x="184" y="32" xlink:href="#p" />
<use x="184" y="40" xlink:href="#p" />
<use x="184" y="56" xlink:href="#p" />
<use x="184" y="64" xlink:href="#p" />
<use x="184" y="72" xlink:href="#p" />
<use x="184" y="96" xlink:href="#p" />
<use x="184" y="112" xlink:href="#p" />
<use x="184" y="120" xlink:href="#p" />
<use x="184" y="128" xlink:href="#p" />
<use x="184" y="152" xlink:href="#p" />
<use x="184" y="160" xlink:href="#p" />
<use x="184" y="168" xlink:href="#p" />
<use x="184" y="192" xlink:href="#p" />
<use x="184" y="200" xlink:href="#p" />
<use x="184" y="208" xlink:href="#p" />
<use x="184" y="216" xlink:href="#p" />
<use x="184" y="240" xlink:href="#p" />
<use x="184" y="248" xlink:href="#p" />
<use x="184" y="256" xlink:href="#p" />
<use x="184" y="264" xlink:href="#p" />
<use x="184" y="288" xlink:href="#p" />
<use x="184" y="320" xlink:href="#p" />
<use x="184" y="328" xlink:href="#p" />
<use x="184" y="336" xlink:href="#p" />
<use x="184" y="352" xlink:href="#p" />
<use x="192" y="32" xlink:href="#p" />
<use x="192" y="56" xlink:href="#p" />
<use x="192" y="64" xlink:href="#p" />
<use x="192" y="80" xlink:href="#p" />
<use x="192" y="88" xlink:href="#p" />
<use x="192" y="96" xlink:href="#p" />
<use x="192" y="104" xlink:href="#p" />
<use x="192" y="112" xlink:href="#p" />
<use x="192" y="128" xlink:href="#p" />
<use x="192" y="152" xlink:href="#p" />
<use x="192" y="160" xlink:href="#p" />
<use x="192" y="168" xlink:href="#p" />
<use x="192" y="184" xlink:href="#p" />
<use x="192" y="216" xlink:href="#p" />
<use x="192" y="224" xlink:href="#p" />
<use x="192" y="232" xlink:href="#p" />
<use x="192" y="264" xlink:href="#p" />
<use x="192" y="288" xlink:href="#p" />
<use x="192" y="312" xlink:href="#p" />
<use x="192" y="320" xlink:href="#p" />
<use x="192" y="352" xlink:href="#p" />
<use x="200" y="40" xlink:href="#p" />
<use x="200" y="48" xlink:href="#p" />
<use x="200" y="56" xlink:href="#p" />
<use x="200" y="88" xlink:href="#p" />
<use x="200" y="96" xlink:href="#p" />
<use x="200" y="104" xlink:href="#p" />
<use x="200" y="112" xlink:href="#p" />
<use x="200" y="152" xlink:href="#p" />
<use x="200" y="160" xlink:href="#p" />
<use x="200" y="168" xlink:href="#p" />
<use x="200" y="176" xlink:href="#p" />
<use x="200" y="184" xlink:href="#p" />
<use x="200" y="192" xlink:href="#p" />
<use x="200" y="200" xlink:href="#p" />
<use x="200" y="224" xlink:href="#p" />
<use x="200" y="232" xlink:href="#p" />
<use x="200" y="240" xlink:href="#p" />
<use x="200" y="264" xlink:href="#p" />
<use x="200" y="272" xlink:href="#p" />
<use x="200" y="288" xlink:href="#p" />
<use x="200" y="304" xlink:href="#p" />
<use x="200" y="312" xlink:href="#p" />
<use x="200" y="320" xlink:href="#p" />
<use x="200" y="344" xlink:href="#p" />
<use x="208" y="32" xlink:href="#p" />
<use x="208" y="40" xlink:href="#p" />
<use x="208" y="48" xlink:href="#p" />
<use x="208" y="56" xlink:href="#p" />
<use x="208" y="80" xlink:href="#p" />
<use x="208" y="104" xlink:href="#p" />
<use x="208" y="112" xlink:href="#p" />
<use x="208" y="120" xlink:href="#p" />
<use x="208" y="144" xlink:href="#p" />
<use x="208" y="160" xlink:href="#p" />
<use x="208" y="192" xlink:href="#p" />
<use x="208" y="208" xlink:href="#p" />
<use x="208" y="216" xlink:href="#p" />
<use x="208" y="248" xlink:href="#p" />
<use x="208" y="280" xlink:href="#p" />
<use x="208" y="288" xlink:href="#p" />
<use x="208" y="304" xlink:href="#p" />
<use x="208" y="320" xlink:href="#p" />
<use x="208" y="336" xlink:href="#p" />
<use x="216" y="48" xlink:href="#p" />
<use x="216" y="64" xlink:href="#p" />
<use x="216" y="72" xlink:href="#p" />
<use x="216" y="88" xlink:href="#p" />
<use x="216" y="96" xlink:href="#p" />
<use x="216" y="104" xlink:href="#p" />
<use x="216" y="120" xlink:href="#p" />
<use x="216" y="160" xlink:href="#p" />
<use x="216" y="168" xlink:href="#p" />
<use x="216" y="176" xlink:href="#p" />
<use x="216" y="192" xlink:href="#p" />
<use x="216" y="200" xlink:href="#p" />
<use x="216" y="208" xlink:href="#p" />
<use x="216" y="216" xlink:href="#p" />
<use x="216" y="232" xlink:href="#p" />
<use x="216" y="240" xlink:href="#p" />
<use x="216" y="272" xlink:href="#p" />
<use x="216" y="280" xlink:href="#p" />
<use x="216" y="296" xlink:href="#p" />
<use x="216" y="304" xlink:href="#p" />
<use x="216" y="312" xlink:href="#p" />
<use x="216" y="320" xlink:href="#p" />
<use x="216" y="328" xlink:href="#p" />
<use x="216" y="336" xlink:href="#p" />
<use x="216" y="352" xlink:href="#p" />
<use x="224" y="40" xlink:href="#p" />
<use x="224" y="56" xlink:href="#p" />
<use x="224" y="64" xlink:href="#p" />
<use x="224" y="72" xlink:href="#p" />
<use x="224" y="80" xlink:href="#p" />
<use x="224" y="88" xlink:href="#p" />
<use x="224" y="96" xlink:href="#p" />
<use x="224" y="112" xlink:href="#p" />
<use x="224" y="128" xlink:href="#p" />
<use x="224" y="152" xlink:href="#p" />
<use x="224" y="160" xlink:href="#p" />
<use x="224" y="184" xlink:href="#p" />
<use x="224" y="192" xlink:href="#p" />
<use x="224" y="216" xlink:href="#p" />
<use x="224" y="224" xlink:href="#p" />
<use x="224" y="240" xlink:href="#p" />
<use x="224" y="248" xlink:href="#p" />
<use x="224" y="264" xlink:href="#p" />
<use x="224" y="272" xlink:href="#p" />
<use x="224" y="288" xlink:href="#p" />
<use x="224" y="296" xlink:href="#p" />
<use x="224" y="320" xlink:href="#p" />
<use x="224" y="336" xlink:href="#p" />
<use x="224" y="344" xlink:href="#p" />
<use x="224" y="352" xlink:href="#p" />
<use x="232" y="48" xlink:href="#p" />
<use x="232" y="64" xlink:href="#p" />
<use x="232" y="104" xlink:href="#p" />
<use x="232" y="136" xlink:href="#p" />
<use x="232" y="144" xlink:href="#p" />
<use x="232" y="168" xlink:href="#p" />
<use x="232" y="192" xlink:href="#p" />
<use x="232" y="208" xlink:href="#p" />
<use x="232" y="232" xlink:href="#p" />
<use x="232" y="240" xlink:href="#p" />
<use x="232" y="304" xlink:href="#p" />
<use x="232" y="312" xlink:href="#p" />
<use x="232" y="320" xlink:href="#p" />
<use x="232" y="336" xlink:href="#p" />
<use x="240" y="56" xlink:href="#p" />
<use x="240" y="64" xlink:href="#p" />
<use x="240" y="80" xlink:href="#p" />
<use x="240" y="88" xlink:href="#p" />
<use x="240" y="104" xlink:href="#p" />
<use x="240" y="152" xlink:href="#p" />
<use x="240" y="184" xlink:href="#p" />
<use x="240" y="192" xlink:href="#p" />
<use x="240" y="208" xlink:href="#p" />
<use x="240" y="216" xlink:href="#p" />
<use x="240" y="232" xlink:href="#p" />
<use x="240" y="248" xlink:href="#p" />
<use x="240" y="256" xlink:href="#p" />
<use x="240" y="264" xlink:href="#p" />
<use x="240" y="304" xlink:href="#p" />
<use x="240" y="328" xlink:href="#p" />
<use x="240" y="336" xlink:href="#p" />
<use x="240" y="344" xlink:href="#p" />
<use x="248" y="32" xlink:href="#p" />
<use x="248" y="48" xlink:href="#p" />
<use x="248" y="56" xlink:href="#p" />
<use x="248" y="64" xlink:href="#p" />
<use x="248" y="88" xlink:href="#p" />
<use x="248" y="104" xlink:href="#p" />
<use x="248" y="112" xlink:href="#p" />
<use x="248" y="128" xlink:href="#p" />
<use x="248" y="144" xlink:href="#p" />
<use x="248" y="152" xlink:href="#p" />
<use x="248" y="168" xlink:href="#p" />
<use x="248" y="176" xlink:href="#p" />
<use x="248" y="192" xlink:href="#p" />
<use x="248" y="200" xlink:href="#p" />
<use x="248" y="208" xlink:href="#p" />
<use x="248" y="216" xlink:href="#p" />
<use x="248" y="232" xlink:href="#p" />
<use x="248" y="240" xlink:href="#p" />
<use x="248" y="248" xlink:href="#p" />
<use x="248" y="256" xlink:href="#p" />
<use x="248" y="288" xlink:href="#p" />
<use x="248" y="296" xlink:href="#p" />
<use x="248" y="304" xlink:href="#p" />
<use x="248" y="312" xlink:href="#p" />
<use x="248" y="320" xlink:href="#p" />
<use x="248" y="328" xlink:href="#p" />
<use x="248" y="336" xlink:href="#p" />
<use x="248" y="352" xlink:href="#p" />
<use x="256" y="48" xlink:href="#p" />
<use x="256" y="64" xlink:href="#p" />
<use x="256" y="80" xlink:href="#p" />
<use x="256" y="88" xlink:href="#p" />
<use x="256" y="104" xlink:href="#p" />
<use x="256" y="112" xlink:href="#p" />
<use x="256" y="128" xlink:href="#p" />
<use x="256" y="152" xlink:href="#p" />
<use x="256" y="160" xlink:href="#p" />
<use x="256" y="168" xlink:href="#p" />
<use x="256" y="176" xlink:href="#p" />
<use x="256" y="192" xlink:href="#p" />
<use x="256" y="200" xlink:href="#p" />
<use x="256" y="216" xlink:href="#p" />
<use x="256" y="248" xlink:href="#p" />
<use x="256" y="264" xlink:href="#p" />
<use x="256" y="272" xlink:href="#p" />
<use x="256" y="328" xlink:href="#p" />
<use x="256" y="352" xlink:href="#p" />
<use x="264" y="48" xlink:href="#p" />
<use x="264" y="56" xlink:href="#p" />
<use x="264" y="88" xlink:href="#p" />
<use x="264" y="96" xlink:href="#p" />
<use x="264" y="120" xlink:href="#p" />
<use x="264" y="128" xlink:href="#p" />
<use x="264" y="152" xlink:href="#p" />
<use x="264" y="160" xlink:href="#p" />
<use x="264" y="168" xlink:href="#p" />
<use x="264" y="200" xlink:href="#p" />
<use x="264" y="208" xlink:href="#p" />
<use x="264" y="216" xlink:href="#p" />
<use x="264" y="224" xlink:href="#p" />
<use x="264" y="240" xlink:href="#p" />
<use x="264" y="248" xlink:href="#p" />
<use x="264" y="256" xlink:href="#p" />
<use x="264" y="264" xlink:href="#p" />
<use x="264" y="280" xlink:href="#p" />
<use x="264" y="288" xlink:href="#p" />
<use x="264" y="304" xlink:href="#p" />
<use x="264" y="312" xlink:href="#p" />
<use x="264" y="336" xlink:href="#p" />
<use x="264" y="344" xlink:href="#p" />
<use x="264" y="352" xlink:href="#p" />
<use x="272" y="32" xlink:href="#p" />
<use x="272" y="40" xlink:href="#p" />
<use x="272" y="48" xlink:href="#p" />
<use x="272" y="72" xlink:href="#p" />
<use x="272" y="80" xlink:href="#p" />
<use x="272" y="104" xlink:href="#p" />
<use x="272" y="136" xlink:href="#p" />
<use x="272" y="152" xlink:href="#p" />
<use x="272" y="168" xlink:href="#p" />
<use x="272" y="176" xlink:href="#p" />
<use x="272" y="200" xlink:href="#p" />
<use x="272" y="208" xlink:href="#p" />
<use x="272" y="232" xlink:href="#p" />
<use x="272" y="240" xlink:href="#p" />
<use x="272" y="248" xlink:href="#p" />
<use x="272" y="256" xlink:href="#p" />
<use x="272" y="264" xlink:href="#p" />
<use x="272" y="272" xlink:href="#p" />
<use x="272" y="280" xlink:href="#p" />
<use x="272" y="296" xlink:href="#p" />
<use x="272" y="312" xlink:href="#p" />
<use x="272" y="320" xlink:href="#p" />
<use x="272" y="344" xlink:href="#p" />
<use x="280" y="40" xlink:href="#p" />
<use x="280" y="56" xlink:href="#p" />
<use x="280" y="72" xlink:href="#p" />
<use x="280" y="88" xlink:href="#p" />
<use x="280" y="120" xlink:href="#p" />
<use x="280" y="136" xlink:href="#p" />
<use x="280" y="144" xlink:href="#p" />
<use x="280" y="152" xlink:href="#p" />
<use x="280" y="192" xlink:href="#p" />
<use x="280" y="224" xlink:href="#p" />
<use x="280" y="248" xlink:href="#p" />
<use x="280" y="264" xlink:href="#p" />
<use x="280" y="288" xlink:href="#p" />
<use x="280" y="296" xlink:href="#p" />
<use x="280" y="304" xlink:href="#p" />
<use x="280" y="312" xlink:href="#p" />
<use x="280" y="320" xlink:href="#p" />
<use x="280" y="344" xlink:href="#p" />
<use x="288" y="48" xlink:href="#p" />
<use x="288" y="56" xlink:href="#p" />
<use x="288" y="80" xlink:href="#p" />
<use x="288" y="88" xlink:href="#p" />
<use x="288" y="112" xlink:href="#p" />
<use x="288" y="120" xlink:href="#p" />
<use x="288" y="128" xlink:href="#p" />
<use x="288" y="152" xlink:href="#p" />
<use x="288" y="168" xlink:href="#p" />
<use x="288" y="184" xlink:href="#p" />
<use x="288" y="192" xlink:href="#p" />
<use x="288" y="216" xlink:href="#p" />
<use x="288" y="224" xlink:href="#p" />
<use x="288" y="232" xlink:href="#p" />
<use x="288" y="240" xlink:href="#p" />
<use x="288" y="248" xlink:href="#p" />
<use x="288" y="264" xlink:href="#p" />
<use x="288" y="272" xlink:href="#p" />
<use x="288" y="288" xlink:href="#p" />
<use x="288" y="296" xlink:href="#p" />
<use x="288" y="304" xlink:href="#p" />
<use x="288" y="312" xlink:href="#p" />
<use x="288" y="320" xlink:href="#p" />
<use x="288" y="328" xlink:href="#p" />
<use x="288" y="336" xlink:href="#p" />
<use x="288" y="344" xlink:href="#p" />
<use x="288" y="352" xlink:href="#p" />
<use x="296" y="96" xlink:href="#p" />
<use x="296" y="104" xlink:href="#p" />
<use x="296" y="120" xlink:href="#p" />
<use x="296" y="144" xlink:href="#p" />
<use x="296" y="168" xlink:href="#p" />
<use x="296" y="192" xlink:href="#p" />
<use x="296" y="200" xlink:href="#p" />
<use x="296" y="224" xlink:href="#p" />
<use x="296" y="248" xlink:href="#p" />
<use x="296" y="256" xlink:href="#p" />
<use x="296" y="272" xlink:href="#p" />
<use x="296" y="280" xlink:href="#p" />
<use x="296" y="288" xlink:href="#p" />
<use x="296" y="320" xlink:href="#p" />
<use x="296" y="336" xlink:href="#p" />
<use x="296" y="344" xlink:href="#p" />
<use x="296" y="352" xlink:href="#p" />
<use x="304" y="32" xlink:href="#p" />
<use x="304" y="40" xlink:href="#p" />
<use x="304" y="48" xlink:href="#p" />
<use x="304" y="56" xlink:href="#p" />
<use x="304" y="64" xlink:href="#p" />
<use x="304" y="72" xlink:href="#p" />
<use x="304" y="80" xlink:href="#p" />
<use x="304" y="104" xlink:href="#p" />
<use x="304" y="144" xlink:href="#p" />
<use x="304" y="168" xlink:href="#p" />
<use x="304" y="200" xlink:href="#p" />
<use x="304" y="232" xlink:href="#p" />
<use x="304" y="256" xlink:href="#p" />
<use x="304" y="288" xlink:href="#p" />
<use x="304" y="304" xlink:href="#p" />
<use x="304" y="320" xlink:href="#p" />
<use x="304" y="344" xlink:href="#p" />
<use x="304" y="352" xlink:href="#p" />
<use x="312" y="32" xlink:href="#p" />
<use x="312" y="80" xlink:href="#p" />
<use x="312" y="96" xlink:href="#p" />
<use x="312" y="120" xlink:href="#p" />
<use x="312" y="160" xlink:href="#p" />
<use x="312" y="168" xlink:href="#p" />
<use x="312" y="176" xlink:href="#p" />
<use x="312" y="184" xlink:href="#p" />
<use x="312" y="200" xlink:href="#p" />
<use x="312" y="216" xlink:href="#p" />
<use x="312" y="224" xlink:href="#p" />
<use x="312" y="232" xlink:href="#p" />
<use x="312" y="240" xlink:href="#p" />
<use x="312" y="264" xlink:href="#p" />
<use x="312" y="288" xlink:href="#p" />
<use x="312" y="320" xlink:href="#p" />
<use x="312" y="328" xlink:href="#p" />
<use x="312" y="344" xlink:href="#p" />
<use x="312" y="352" xlink:href="#p" />
<use x="320" y="32" xlink:href="#p" />
<use x="320" y="48" xlink:href="#p" />
<use x="320" y="56" xlink:href="#p" />
<use x="320" y="64" xlink:href="#p" />
<use x="320" y="80" xlink:href="#p" />
<use x="320" y="96" xlink:href="#p" />
<use x="320" y="104" xlink:href="#p" />
<use x="320" y="112" xlink:href="#p" />
<use x="320" y="136" xlink:href="#p" />
<use x="320" y="152" xlink:href="#p" />
<use x="320" y="168" xlink:href="#p" />
<use x="320" y="200" xlink:href="#p" />
<use x="320" y="232" xlink:href="#p" />
<use x="320" y="248" xlink:href="#p" />
<use x="320" y="264" xlink:href="#p" />
<use x="320" y="272" xlink:href="#p" />
<use x="320" y="280" xlink:href="#p" />
<use x="320" y="288" xlink:href="#p" />
<use x="320" y="296" xlink:href="#p" />
<use x="320" y="304" xlink:href="#p" />
<use x="320" y="312" xlink:href="#p" />
<use x="320" y="320" xlink:href="#p" />
<use x="320" y="352" xlink:href="#p" />
<use x="328" y="32" xlink:href="#p" />
<use x="328" y="48" xlink:href="#p" />
<use x="328" y="56" xlink:href="#p" />
<use x="328" y="64" xlink:href="#p" />
<use x="328" y="80" xlink:href="#p" />
<use x="328" y="104" xlink:href="#p" />
<use x="328" y="120" xlink:href="#p" />
<use x="328" y="152" xlink:href="#p" />
<use x="328" y="160" xlink:href="#p" />
<use x="328" y="168" xlink:href="#p" />
<use x="328" y="176" xlink:href="#p" />
<use x="328" y="184" xlink:href="#p" />
<use x="328" y="192" xlink:href="#p" />
<use x="328" y="200" xlink:href="#p" />
<use x="328" y="208" xlink:href="#p" />
<use x="328" y="216" xlink:href="#p" />
<use x="328" y="248" xlink:href="#p" />
<use x="328" y="264" xlink:href="#p" />
<use x="328" y="272" xlink:href="#p" />
<use x="328" y="280" xlink:href="#p" />
<use x="328" y="288" xlink:href="#p" />
<use x="328" y="296" xlink:href="#p" />
<use x="328" y="304" xlink:href="#p" />
<use x="328" y="312" xlink:href="#p" />
<use x="328" y="320" xlink:href="#p" />
<use x="328" y="344" xlink:href="#p" />
<use x="328" y="352" xlink:href="#p" />
<use x="336" y="32" xlink:href="#p" />
<use x="336" y="48" xlink:href="#p" />
<use x="336" y="56" xlink:href="#p" />
<use x="336" y="64" xlink:href="#p" />
<use x="336" y="80" xlink:href="#p" />
<use x="336" y="96" xlink:href="#p" />
<use x="336" y="144" xlink:href="#p" />
<use x="336" y="168" xlink:href="#p" />
<use x="336" y="200" xlink:href="#p" />
<use x="336" y="232" xlink:href="#p" />
<use x="336" y="264" xlink:href="#p" />
<use x="336" y="272" xlink:href="#p" />
<use x="336" y="328" xlink:href="#p" />
<use x="344" y="32" xlink:href="#p" />
<use x="344" y="80" xlink:href="#p" />
<use x="344" y="120" xlink:href="#p" />
<use x="344" y="152" xlink:href="#p" />
<use x="344" y="160" xlink:href="#p" />
<use x="344" y="176" xlink:href="#p" />
<use x="344" y="192" xlink:href="#p" />
<use x="344" y="224" xlink:href="#p" />
<use x="344" y="232" xlink:href="#p" />
<use x="344" y="248" xlink:href="#p" />
<use x="344" y="264" xlink:href="#p" />
<use x="344" y="288" xlink:href="#p" />
<use x="344" y="312" xlink:href="#p" />
<use x="344" y="320" xlink:href="#p" />
<use x="344" y="328" xlink:href="#p" />
<use x="344" y="336" xlink:href="#p" />
<use x="344" y="344" xlink:href="#p" />
<use x="344" y="352" xlink:href="#p" />
<use x="352" y="32" xlink:href="#p" />
<use x="352" y="40" xlink:href="#p" />
<use x="352" y="48" xlink:href="#p" />
<use x="352" y="56" xlink:href="#p" />
<use x="352" y="64" xlink:href="#p" />
<use x="352" y="72" xlink:href="#p" />
<use x="352" y="80" xlink:href="#p" />
<use x="352" y="104" xlink:href="#p" />
<use x="352" y="112" xlink:href="#p" />
<use x="352" y="136" xlink:href="#p" />
<use x="352" y="144" xlink:href="#p" />
<use x="352" y="152" xlink:href="#p" />
<use x="352" y="168" xlink:href="#p" />
<use x="352" y="176" xlink:href="#p" />
<use x="352" y="184" xlink:href="#p" />
<use x="352" y="200" xlink:href="#p" />
<use x="352" y="208" xlink:href="#p" />
<use x="352" y="216" xlink:href="#p" />
<use x="352" y="224" xlink:href="#p" />
<use x="352" y="232" xlink:href="#p" />
<use x="352" y="240" xlink:href="#p" />
<use x="352" y="264" xlink:href="#p" />
<use x="352" y="272" xlink:href="#p" />
<use x="352" y="280" xlink:href="#p" />
<use x="352" y="296" xlink:href="#p" />
<use x="352" y="304" xlink:href="#p" />
<use x="352" y="312" xlink:href="#p" />
<use x="352" y="320" xlink:href="#p" />
<use x="352" y="328" xlink:href="#p" />
<use x="352" y="336" xlink:href="#p" />
<use x="352" y="344" xlink:href="#p" />
</g>
</svg>